# xmcd
#
# Track frame offsets: 
#        150
#        16370
#        39750
#        59852
#        77382
#        93027
#        117537
#        136797
#        153835
#        172977
#        190642
#
# Disc length: 2852 seconds
#
# Revision: 0
# Processed by: cddbd v1.5.1PL0 Copyright (c) Steve Scherf et al.
# Submitted via: ExactAudioCopy v0.95a5
#
DISCID=790b220b
DTITLE=Vykki Vox - Soul Searching
DYEAR=1996
DGENRE=Blues
TTITLE0=I'm On Your Side
TTITLE1=Come To Mama
TTITLE2=Rockin' My Blues Away
TTITLE3=Maybe
TTITLE4=Something You Got
TTITLE5=Prowl
TTITLE6=Pack It Up
TTITLE7=Time Will Tell
TTITLE8=Too Many Cooks
TTITLE9=Rod and Real
TTITLE10=Come To Mama (Mosh Mix)
EXTD=
EXTT0=
EXTT1=
EXTT2=
EXTT3=
EXTT4=
EXTT5=
EXTT6=
EXTT7=
EXTT8=
EXTT9=
EXTT10=
PLAYORDER=
